<?xml version="1.0" encoding="UTF-8" standalone="no"?>
<svg width="48px" height="48px" viewBox="0 0 48 48" version="1.1" xmlns="http://www.w3.org/2000/svg" xmlns:xlink="http://www.w3.org/1999/xlink" xmlns:sketch="http://www.bohemiancoding.com/sketch/ns">
    <!-- Generator: Sketch 3.5.1 (25234) - http://www.bohemiancoding.com/sketch -->
    <title>icon-payment</title>
    <desc>Created with Sketch.</desc>
    <defs>
        <path id="path-1" d="M0,0.0121652893 L41.365405,0.0121652893 L41.365405,46 L0,46 L0,0.0121652893 Z"></path>
    </defs>
    <g id="Page-1" stroke="none" stroke-width="1" fill="none" fill-rule="evenodd" sketch:type="MSPage">
        <g id="for-practices-assets" sketch:type="MSArtboardGroup" transform="translate(-279.000000, -2306.000000)">
            <g id="Page-1" sketch:type="MSLayerGroup" transform="translate(282.000000, 2307.000000)">
                <mask id="mask-2" sketch:name="Clip 2" fill="white">
                    <use xlink:href="#path-1"></use>
                </mask>
                <g id="Clip-2"></g>
                <path d="M24.5266298,15.0714628 C24.5266298,15.0714628 24.655886,14.8893636 24.6372579,14.9038099 C24.7159521,14.8137107 24.8049107,14.7334959 24.8957702,14.6563223 C24.835324,14.7137273 25.0900347,14.5407521 25.0744479,14.5502562 C25.2154893,14.4662397 25.244762,14.4605372 25.3595719,14.4202397 C25.6694066,14.3118926 25.8667124,14.2970661 26.1803488,14.2985868 C26.4297372,14.3001074 26.6167785,14.3483884 26.8809934,14.4327851 C26.9262331,14.4468512 26.9539851,14.4552149 26.9710926,14.4597769 C26.9760347,14.4654793 27.0007455,14.4803058 27.068795,14.515281 C27.1144149,14.5377107 27.3504975,14.6852149 27.3379521,14.6711488 C27.4200678,14.7365372 27.4938198,14.8106694 27.5671917,14.8859421 C27.6550099,14.9756612 27.6215554,14.9368843 27.7200182,15.101876 C27.8032744,15.239876 27.8352083,15.3706529 27.8359686,15.5770826 C27.8359686,15.6690826 27.7743818,15.8599256 27.7261008,15.9511653 C27.7261008,15.9511653 27.5968446,16.1340248 27.6154727,16.1191983 C27.5367785,16.2089174 27.4478198,16.2891322 27.3562,16.3670661 C27.4177868,16.309281 27.1626959,16.4822562 27.1782826,16.4727521 C27.0372413,16.5563884 27.0079686,16.5624711 26.8931587,16.6023884 C26.583324,16.7114959 26.3860182,16.7259421 26.0723818,16.7244215 C25.8207124,16.7130165 25.6397537,16.6761405 25.3717372,16.5906033 C25.3264975,16.5757769 25.2987455,16.5677934 25.281638,16.5632314 C25.2766959,16.5571488 25.2519851,16.5423223 25.1839355,16.5081074 C25.1383157,16.4860579 24.9022331,16.3374132 24.9147785,16.3522397 C24.8326628,16.2868512 24.7589107,16.2119587 24.6855388,16.1378264 C24.5977207,16.0477273 24.6311752,16.0865041 24.5319521,15.9207521 C24.4494562,15.7835124 24.4175223,15.6527355 24.416762,15.4455455 C24.4160017,15.3535455 24.4783488,15.1627025 24.5266298,15.0714628 L24.5266298,15.0714628 Z M25.9446463,18.7088843 C25.9864645,18.7142066 26.0286628,18.7172479 26.0723818,18.7172479 C27.9245471,18.7275124 29.7257702,17.5394959 29.828795,15.5770826 C29.9329603,13.604405 27.9177041,12.3806529 26.1803488,12.3057603 C24.3297041,12.2263058 22.523919,13.5352149 22.4239355,15.4455455 C22.3228116,17.3710826 24.2377041,18.5819091 25.9446463,18.7088843 L25.9446463,18.7088843 Z M38.9862165,6.40331405 C38.9839355,6.42194215 38.9782331,6.45159504 38.9611256,6.48352893 C38.9470595,6.50519835 38.9364149,6.52154545 38.9276711,6.53561157 C38.8847124,6.58161157 38.8379521,6.62609091 38.7889107,6.66714876 C38.9143653,6.55576033 38.525076,6.77245455 38.6581339,6.72341322 C38.4627289,6.79526446 38.4315554,6.79032231 38.2205636,6.79108264 C37.9966463,6.77929752 37.8753736,6.73823967 37.6377702,6.5823719 C37.7662661,6.66714876 37.467076,6.33868595 37.570481,6.49417355 C37.4910264,6.37442149 37.5237207,6.46718182 37.5237207,6.35085124 C37.5263818,6.33222314 37.5324645,6.30257025 37.5488116,6.27063636 C37.5628777,6.24896694 37.5739025,6.23261983 37.5822661,6.21931405 C37.6259851,6.17255372 37.6719851,6.12883471 37.7210264,6.08777686 C37.5955719,6.19916529 37.984481,5.98171074 37.8518033,6.03075207 C38.0475884,5.95852066 38.0780017,5.96384298 38.2889934,5.96308264 C38.5087289,5.96232231 38.6425471,6.02086777 38.8717868,6.17179339 C38.7440512,6.08777686 39.0428612,6.41509917 38.9402165,6.26075207 C39.0196711,6.38050413 38.9869769,6.2877438 38.9862165,6.40331405 L38.9862165,6.40331405 Z M38.9862165,6.40255372 C38.9869769,6.3797438 38.9884975,6.38392562 38.9862165,6.40255372 L38.9862165,6.40255372 Z M37.1561008,11.9328182 C36.2098694,14.4240413 35.2647785,16.9145041 34.3189273,19.4053471 L32.0778529,19.4053471 C32.0972413,19.303843 32.1113074,19.1989174 32.1181504,19.0920909 C32.1261339,19.0373471 32.1344975,18.9822231 32.142481,18.9282397 C33.6247455,18.6081405 34.8792909,17.5136446 34.9648281,15.8853967 C35.0355388,14.5563388 34.1429107,13.5679091 33.0225636,13.0413802 C33.3126298,11.0968347 33.6038364,9.15152893 33.8942826,7.20698347 C34.0174562,6.38392562 34.1398694,5.56124793 34.263043,4.73933058 C34.8291091,4.86250413 35.3940347,4.98605785 35.9597207,5.10847107 C35.7171752,5.46202479 35.5616876,5.87906612 35.530514,6.33526446 C35.4369934,7.72819008 36.7846793,8.61739669 38.0148942,8.76528099 C38.0795223,8.77706612 38.1479521,8.78466942 38.2205636,8.78390909 C38.2608612,8.78619008 38.299638,8.78466942 38.3380347,8.78086777 C38.3425967,8.78086777 38.3475388,8.78010744 38.3521008,8.78010744 C37.9533074,9.8308843 37.5548942,10.8816612 37.1561008,11.9328182 L37.1561008,11.9328182 Z M36.839043,39.3818926 C36.8656545,39.401281 36.8782,39.4115455 36.839043,39.3818926 L36.839043,39.3818926 Z M20.9751256,5.02977686 C21.0397537,5.04156198 21.1081835,5.04840496 21.180795,5.04840496 C21.2210926,5.05068595 21.2594893,5.04916529 21.2982661,5.04536364 C22.6546959,4.991 23.8434727,4.10103306 23.9392744,2.68339669 C23.9556215,2.44503306 23.9290099,2.22149587 23.8681835,2.01354545 L29.0669438,2.01354545 C29.0068777,2.20020661 28.9677207,2.39599174 28.9536545,2.59938017 C28.8597537,3.99230579 30.2074397,4.88189256 31.4380347,5.02977686 C31.5026628,5.04156198 31.5707124,5.04840496 31.6437041,5.04840496 C31.6828612,5.05068595 31.7223983,5.04916529 31.760795,5.04536364 C31.9181835,5.03928099 32.0729107,5.02141322 32.2242165,4.99252066 C32.1759355,5.31338017 32.1284149,5.63423967 32.0801339,5.95509917 C31.4437372,10.2118099 30.8073405,14.469281 30.1720843,18.7259917 C30.169043,18.7438595 30.166762,18.7609669 30.1637207,18.7788347 C30.1606793,18.7982231 30.1591587,18.8176116 30.1572579,18.8366198 C30.1416711,18.9035289 30.1310264,18.972719 30.1279851,19.0438099 C30.1264645,19.0742231 30.1264645,19.0958926 30.1264645,19.113 C30.1192413,19.1225041 30.1082165,19.1487355 30.0895884,19.2080413 C30.1317868,19.0727025 30.0010099,19.2928182 30.0538529,19.2414959 C29.971357,19.3312149 29.8862,19.3669504 29.7577041,19.4019256 C29.7999025,19.3905207 29.6018364,19.4053471 29.5349273,19.4053471 L22.192795,19.4053471 C21.9635554,19.4053471 21.8217537,19.2920579 21.7601669,19.1426529 C21.7609273,19.1301074 21.7354562,19.0133967 21.7316545,18.9791818 C21.7126463,18.784157 21.6932579,18.5887521 21.6738694,18.3933471 C21.2252744,13.8910496 20.7762992,9.3883719 20.3277041,4.88493388 C20.5417372,4.9548843 20.7599521,5.00392562 20.9751256,5.02977686 L20.9751256,5.02977686 Z M21.9464479,2.66704959 C21.9472083,2.64423967 21.9487289,2.64842149 21.9464479,2.66704959 L21.9464479,2.66704959 Z M20.4843322,2.61496694 C20.4866132,2.59671901 20.4926959,2.56668595 20.509043,2.53475207 C20.5231091,2.51346281 20.5341339,2.4971157 20.5424975,2.48380992 C20.5862165,2.43704959 20.6322165,2.39219008 20.6812579,2.3515124 C20.5558033,2.46290083 20.9447124,2.24620661 20.8120347,2.29524793 C21.0078198,2.22301653 21.0382331,2.22833884 21.2492248,2.22757851 C21.4689603,2.22681818 21.6027785,2.28460331 21.8320182,2.43628926 C21.7035223,2.3515124 22.0027124,2.67959504 21.9004479,2.5244876 C21.9799025,2.64423967 21.9472083,2.5518595 21.9464479,2.66780992 C21.9441669,2.68643802 21.9380843,2.71609091 21.9209769,2.74802479 C21.9069107,2.76969421 21.8966463,2.78604132 21.8879025,2.79934711 C21.8445636,2.84610744 21.7978033,2.88982645 21.748762,2.93050413 C21.8742165,2.8191157 21.4853074,3.03695041 21.6183653,2.98790909 C21.4229603,3.05976033 21.3917868,3.05481818 21.180795,3.05557851 C20.9564975,3.04341322 20.835605,3.00273554 20.5980017,2.84686777 C20.7264975,2.93126446 20.4273074,2.60318182 20.5303322,2.75828926 C20.4508777,2.63815702 20.4835719,2.73091736 20.4843322,2.61496694 L20.4843322,2.61496694 Z M20.4835719,2.61496694 C20.4835719,2.63891736 20.4812909,2.63435537 20.4835719,2.61496694 L20.4835719,2.61496694 Z M32.4089769,2.66704959 C32.4097372,2.64423967 32.4112579,2.64842149 32.4089769,2.66704959 L32.4089769,2.66704959 Z M30.946481,2.61496694 C30.948762,2.59671901 30.9552248,2.56668595 30.9715719,2.53475207 C30.985638,2.51346281 30.9962826,2.4971157 31.0050264,2.48380992 C31.0487455,2.43704959 31.0947455,2.39219008 31.1437868,2.3515124 C31.0183322,2.46290083 31.4076215,2.24620661 31.2745636,2.29524793 C31.4699686,2.22301653 31.5011421,2.22833884 31.7117537,2.22757851 C31.9318694,2.22681818 32.0653074,2.28460331 32.2949273,2.43628926 C32.1664314,2.3515124 32.4656215,2.67959504 32.3629769,2.5244876 C32.4424314,2.64423967 32.4097372,2.5518595 32.4089769,2.66780992 C32.407076,2.68643802 32.4002331,2.71609091 32.383886,2.74802479 C32.3698198,2.76969421 32.3595554,2.78604132 32.3504314,2.79934711 C32.3067124,2.84610744 32.2607124,2.88982645 32.2116711,2.93050413 C32.3371256,2.8191157 31.9478364,3.03695041 32.0808942,2.98790909 C31.8854893,3.05976033 31.8543157,3.05481818 31.6437041,3.05557851 C31.4194066,3.04341322 31.2981339,3.00273554 31.0605306,2.84686777 C31.1890264,2.93126446 30.8898364,2.60318182 30.992481,2.75828926 C30.9137868,2.63815702 30.946481,2.73091736 30.946481,2.61496694 L30.946481,2.61496694 Z M30.946481,2.61496694 C30.946481,2.63891736 30.9442,2.63435537 30.946481,2.61496694 L30.946481,2.61496694 Z M32.7009438,15.191595 L32.7024645,15.1931157 C32.7914231,15.2839752 32.7572083,15.2451983 32.8568116,15.4101901 C32.9400678,15.5481901 32.9712413,15.6789669 32.9720017,15.8853967 C32.972762,15.9773967 32.9111752,16.1682397 32.8621339,16.2594793 C32.8621339,16.2594793 32.7328777,16.4419587 32.7522661,16.4271322 C32.6735719,16.5179917 32.5834727,16.5982066 32.4929934,16.6753802 C32.5108612,16.6582727 32.501357,16.6620744 32.4789273,16.6746198 C32.5530595,16.1800248 32.6268116,15.6854298 32.7009438,15.191595 L32.7009438,15.191595 Z M37.5237207,6.35085124 C37.5237207,6.37442149 37.5214397,6.3698595 37.5237207,6.35085124 L37.5237207,6.35085124 Z M1.99233223,42.9109669 L1.99233223,24.7128347 L10.2616876,24.7128347 C10.2540843,25.5385537 10.2643488,26.3642727 10.2643488,27.1884711 L10.2643488,40.7691157 C10.2643488,41.4990331 10.3536876,42.2281901 10.579886,42.9109669 L1.99233223,42.9109669 Z M40.2107289,4.15501653 C39.8989934,3.92843802 39.5135058,3.84556198 39.143605,3.76534711 C38.1874893,3.55663636 37.2309934,3.34868595 36.2744975,3.13997521 C35.7027289,3.01604132 35.1305802,2.89134711 34.5580512,2.76665289 C34.7219025,1.66531405 34.1474727,0.665859504 33.2324149,0.263644628 C32.8092909,0.0773636364 32.379324,0.0207190083 31.9257868,0.0207190083 L21.7844975,0.0207190083 C21.0047785,0.0207190083 20.1946463,-0.0579752066 19.4643488,0.263644628 C18.3919025,0.735049587 18.0265636,1.79457025 18.1337702,2.86321488 C18.5116545,6.65802479 18.8895388,10.4532149 19.2681835,14.2472645 C17.6429769,15.3003223 16.0173901,16.353 14.3921835,17.4060579 C13.4638198,18.0074793 12.5365967,18.6089008 11.6086132,19.209562 C11.4382992,19.3194298 11.2691256,19.4300579 11.0991917,19.5399256 C10.4932083,19.931876 10.5251421,20.8207025 10.4456876,21.4563388 C10.393605,21.8764215 10.3559686,22.298405 10.3282165,22.7200083 L0.995919008,22.7200083 C0.453042975,22.7200083 -0.000114049587,23.1735455 -0.000114049587,23.7164215 L-0.000114049587,43.9077603 C-0.000114049587,44.4510165 0.453042975,44.9041736 0.995919008,44.9041736 L11.4063653,44.9041736 C11.5455058,44.9041736 11.6686793,44.8794628 11.7770264,44.8380248 C12.5426793,45.5820083 13.5128612,45.9998099 14.6290264,45.9998099 L30.6533074,45.9998099 C32.0838694,45.9998099 35.8800787,45.9435488 36.9202881,44.9793701 C38.3095822,43.6916219 38.2875977,40.3817139 36.9257202,39.6599731 C37.3757324,39.4956665 37.7333374,39.4468384 38.771043,38.5288017 C40.2434231,36.8454298 40.3540512,33.9949504 38.8067785,32.4366529 C39.8199463,31.0407104 39.8763428,30.2014771 39.8735352,29.4486694 C39.8707275,28.6958618 39.750061,27.616333 38.7330264,26.5840083 C39.5268116,25.6373967 40.0377537,24.3931157 39.9271256,23.1857107 C39.7526298,21.2715785 38.2661835,19.7627025 36.4208612,19.4612314 C37.4902661,16.6442066 38.5600512,13.8264215 39.6294562,11.0082562 C40.1734727,9.57389256 40.7186298,8.13952893 41.2626463,6.70478512 C41.6295058,5.73954545 40.9516711,4.69485124 40.2107289,4.15501653 Z M37.7879355,22.694157 C38.0164149,23.264405 38.0046298,23.6913306 37.8088446,24.278686 C37.7617041,24.4189669 37.618762,24.6847025 37.4826628,24.9013967 C37.4203157,25.001 37.351886,25.0960413 37.2823157,25.1903223 C37.3340182,25.1169504 37.1576215,25.3382066 37.1359521,25.3617769 C36.9682992,25.5556612 36.783919,25.7427025 36.5843322,25.9046529 C36.063886,26.3251157 36.2946463,27.080124 36.737919,27.4336777 C36.551638,27.2937769 36.7474231,27.4401405 36.8112909,27.4945041 C36.9971917,27.6511322 37.1671256,27.8248678 37.3275554,28.0050661 C37.4492083,28.142686 37.6142,28.3810496 37.7731091,28.6912645 C37.8658694,28.8726033 37.947605,29.223876 37.9525471,29.4740248 C37.9586298,29.7154298 37.8548446,30.1191653 37.7731091,30.3039256 C37.6343488,30.617562 37.4454066,30.9083884 37.2435388,31.1855289 C37.2963818,31.1110165 37.0846298,31.3748512 37.0488942,31.4155289 C36.9732413,31.5025868 36.8930264,31.5854628 36.8112909,31.6679587 C36.7386793,31.7424711 36.6630264,31.8150826 36.5843322,31.8827521 C35.9620017,32.4172645 36.3866463,33.3038099 37.0238033,33.5482562 C37.0937537,33.6060413 37.1576215,33.649 37.2207289,33.692719 C37.2709107,33.7345372 37.3176711,33.7790165 37.3648116,33.8234959 C37.397886,33.8554298 37.5518529,34.0352479 37.5503322,34.0246033 C37.6343488,34.143595 37.7054397,34.2705702 37.7715884,34.3998264 C37.7928777,34.4488678 37.8012413,34.474719 37.8160678,34.5153967 C37.8502826,34.6134793 37.8753736,34.7146033 37.9000843,34.8149669 C37.9525471,35.0278595 37.9491256,35.107314 37.9525471,35.3688678 C37.9586298,35.7349669 37.8887329,36.0291748 37.5801392,36.6812134 C36.6346436,38.307251 35.0537187,38.0581174 34.6365434,38.9017453 C34.5441972,39.1545529 34.4575287,39.3384382 34.4607011,39.5528073 C34.4638736,39.7671765 34.5717055,40.0581171 34.6549617,40.1463155 C34.7047634,40.1991584 34.752284,40.2546626 34.7998047,40.3105469 C34.8480857,40.3736543 34.6279297,40.1669312 35.7375775,41.2762846 C36.0856651,41.6242799 36.3668906,43.347468 34.651123,43.7875366 C32.9353555,44.2276052 30.8116372,44.0182354 30.664133,44.0182354 L14.7411752,44.0069835 C13.926481,44.0069835 13.3733405,43.7887686 12.8950926,43.122719 C12.3434727,42.3536446 12.2575554,41.5480744 12.2575554,40.6124876 L12.2575554,24.6364215 C12.2575554,24.127 12.2655388,23.6183388 12.2921504,23.1092975 C12.323324,22.5150992 12.3807289,21.9220413 12.4548612,21.3316446 C12.4594231,21.3054132 12.4822331,21.137 12.486795,21.1088678 C12.4921174,21.0731322 12.4978198,21.0373967 12.5031421,21.0020413 C14.8324149,19.4939256 17.1609273,17.9850496 19.4902,16.4761736 C19.4962826,16.5400413 19.5027455,16.6031488 19.5088281,16.6670165 C19.5791587,17.3760248 19.6498694,18.0846529 19.7202,18.7929008 C19.7449107,19.0350661 19.7487124,19.2931983 19.8004149,19.5289008 C19.9676876,20.2964545 20.5223488,20.900157 21.2195719,21.1963058 C21.3731587,21.3202397 21.5750264,21.3985537 21.8282165,21.3985537 L35.7415058,21.3985537 C36.1893405,21.3985537 36.5744479,21.5156446 36.9538529,21.7399421 C37.3017041,21.9440909 37.6617207,22.3786198 37.7879355,22.694157 Z M6.35815041,29.3345041 C5.77763802,29.8735785 4.95610083,29.0520413 5.49593554,28.4715289 C6.03577025,27.8902562 6.89570413,28.7558926 6.35815041,29.3345041 L6.35815041,29.3345041 Z M4.08666281,27.0630165 C3.0222,28.0514463 3.15183636,29.7374793 4.08666281,30.7437769 C5.01122479,31.7386694 6.54519174,31.6903884 7.56327438,30.9152314 C7.63284463,30.8699917 7.70203471,30.8141074 7.76742314,30.7437769 C7.83509256,30.6814298 7.88907603,30.615281 7.93317521,30.5483719 C8.7535719,29.495314 8.69844793,28.0647521 7.76742314,27.0630165 C6.77823306,25.9981736 5.09296033,26.1281901 4.08666281,27.0630165 L4.08666281,27.0630165 Z" id="Fill-1" fill="#1f97d0" sketch:type="MSShapeGroup" mask="url(#mask-2)"></path>
            </g>
        </g>
    </g>
</svg>
